Tanya_Crispy root-x0y0t0_010220202.ufo
<glyph name="dollar" format="2">
	<advance width="150"/>
	<unicode hex="0024"/>
	<outline>
		<contour>
			<point x="79" y="-200" type="line"/>
			<point x="81" y="-200" type="line"/>
			<point x="81" y="1800" type="line"/>
			<point x="79" y="1800" type="line"/>
		</contour>
		<contour>
			<point x="33" y="0" type="line"/>
			<point x="95" y="0" type="line"/>
			<point x="128" y="154" type="line"/>
			<point x="128" y="701" type="line"/>
			<point x="33" y="900" type="line"/>
			<point x="33" y="1438" type="line"/>
			<point x="67" y="1598" type="line"/>
			<point x="122" y="1598" type="line"/>
			<point x="122" y="1160" type="line"/>
			<point x="124" y="1160" type="line"/>
			<point x="124" y="1600" type="line"/>
			<point x="65" y="1600" type="line"/>
			<point x="31" y="1438" type="line"/>
			<point x="31" y="899" type="line"/>
			<point x="126" y="700" type="line"/>
			<point x="126" y="154" type="line"/>
			<point x="93" y="2" type="line"/>
			<point x="35" y="2" type="line"/>
			<point x="35" y="343" type="line"/>
			<point x="33" y="343" type="line"/>
		</contour>
	</outline>
</glyph>
<glyph name="asterisk" format="2">
  <advance width="150"/>
  <unicode hex="002A"/>
  <outline>
    <contour>
      <point x="38" y="1477" type="line"/>
      <point x="75" y="1518" type="line"/>
      <point x="112" y="1477" type="line"/>
      <point x="114" y="1478" type="line"/>
      <point x="76" y="1519" type="line"/>
      <point x="128" y="1535" type="line"/>
      <point x="127" y="1537" type="line"/>
      <point x="76" y="1521" type="line"/>
      <point x="76" y="1576" type="line"/>
      <point x="74" y="1576" type="line"/>
      <point x="74" y="1521" type="line"/>
      <point x="23" y="1537" type="line"/>
      <point x="22" y="1535" type="line"/>
      <point x="74" y="1519" type="line"/>
      <point x="36" y="1478" type="line"/>
    </contour>
  </outline>
</glyph>
<glyph name="plus" format="2">
	<advance width="150"/>
	<unicode hex="002B"/>
	<outline>
		<contour>
			<point x="14" y="802" type="line"/>
			<point x="14" y="800" type="line"/>
			<point x="114" y="800" type="line"/>
			<point x="114" y="802" type="line"/>
		</contour>
		<contour>
			<point x="65" y="751" type="line"/>
			<point x="65" y="851" type="line"/>
			<point x="63" y="851" type="line"/>
			<point x="63" y="751" type="line"/>
		</contour>
	</outline>
</glyph>
<glyph name="zero" format="2">
	<advance width="166"/>
	<unicode hex="0030"/>
	<outline>
		<contour>
			<point x="34" y="0" type="line"/>
			<point x="132" y="0" type="line"/>
			<point x="132" y="1600" type="line"/>
			<point x="34" y="1600" type="line"/>
		</contour>
		<contour>
			<point x="36" y="2" type="line"/>
			<point x="36" y="1598" type="line"/>
			<point x="130" y="1598" type="line"/>
			<point x="130" y="2" type="line"/>
		</contour>
	</outline>
</glyph>
<glyph name="two" format="2">
	<advance width="160"/>
	<unicode hex="0032"/>
	<outline>
		<contour>
			<point x="27" y="0" type="line"/>
			<point x="126" y="0" type="line"/>
			<point x="126" y="341" type="line"/>
			<point x="124" y="341" type="line"/>
			<point x="124" y="2" type="line"/>
			<point x="29" y="2" type="line"/>
			<point x="29" y="778" type="line"/>
			<point x="119" y="778" type="line"/>
			<point x="119" y="1600" type="line"/>
			<point x="30" y="1600" type="line"/>
			<point x="30" y="1170" type="line"/>
			<point x="32" y="1170" type="line"/>
			<point x="32" y="1598" type="line"/>
			<point x="117" y="1598" type="line"/>
			<point x="117" y="780" type="line"/>
			<point x="27" y="780" type="line"/>
		</contour>
	</outline>
</glyph>
<glyph name="A" format="2">
	<advance width="156"/>
	<unicode hex="0041"/>
	<outline>
		<contour>
			<point x="29" y="0" type="line" smooth="yes"/>
			<point x="31" y="0" type="line" smooth="yes"/>
			<point x="31" y="799" type="line" smooth="yes"/>
			<point x="125" y="799" type="line" smooth="yes"/>
			<point x="125" y="0" type="line" smooth="yes"/>
			<point x="127" y="0" type="line" smooth="yes"/>
			<point x="127" y="1600" type="line" smooth="yes"/>
			<point x="63" y="1600" type="line" smooth="yes"/>
			<point x="29" y="1438" type="line" smooth="yes"/>
		</contour>
		<contour>
			<point x="31" y="801" type="line" smooth="yes"/>
			<point x="31" y="1437" type="line" smooth="yes"/>
			<point x="65" y="1598" type="line" smooth="yes"/>
			<point x="125" y="1598" type="line" smooth="yes"/>
			<point x="125" y="801" type="line" smooth="yes"/>
		</contour>
	</outline>
</glyph>
<glyph name="E" format="2">
	<advance width="150"/>
	<unicode hex="0045"/>
	<outline>
		<contour>
			<point x="34" y="0" type="line"/>
			<point x="123" y="0" type="line"/>
			<point x="123" y="342" type="line"/>
			<point x="121" y="342" type="line"/>
			<point x="121" y="2" type="line"/>
			<point x="36" y="2" type="line"/>
			<point x="36" y="799" type="line"/>
			<point x="116" y="799" type="line"/>
			<point x="116" y="801" type="line"/>
			<point x="36" y="801" type="line"/>
			<point x="36" y="1598" type="line"/>
			<point x="120" y="1598" type="line"/>
			<point x="120" y="1160" type="line"/>
			<point x="122" y="1160" type="line"/>
			<point x="122" y="1600" type="line"/>
			<point x="34" y="1600" type="line"/>
		</contour>
	</outline>
</glyph>
<glyph name="P" format="2">
	<advance width="153"/>
	<unicode hex="0050"/>
	<outline>
		<contour>
			<point x="34" y="0" type="line"/>
			<point x="36" y="0" type="line"/>
			<point x="36" y="751" type="line"/>
			<point x="126" y="751" type="line"/>
			<point x="126" y="1600" type="line"/>
			<point x="34" y="1600" type="line"/>
		</contour>
		<contour>
			<point x="36" y="753" type="line"/>
			<point x="36" y="1598" type="line"/>
			<point x="124" y="1598" type="line"/>
			<point x="124" y="753" type="line"/>
		</contour>
	</outline>
</glyph>
<glyph name="backslash" format="2">
	<advance width="150"/>
	<unicode hex="005C"/>
	<outline>
		<contour>
			<point x="41" y="1600" type="line"/>
			<point x="39" y="1600" type="line"/>
			<point x="119" y="0" type="line"/>
			<point x="121" y="0" type="line"/>
		</contour>
	</outline>
</glyph>
<glyph name="asciitilde" format="2">
	<advance width="150"/>
	<unicode hex="007E"/>
	<outline>
		<contour>
			<point x="96" y="755" type="line"/>
			<point x="60" y="801" type="line"/>
			<point x="56" y="801" type="line"/>
			<point x="19" y="754" type="line"/>
			<point x="21" y="753" type="line"/>
			<point x="57" y="799" type="line"/>
			<point x="59" y="799" type="line"/>
			<point x="95" y="753" type="line"/>
		</contour>
		<contour>
			<point x="59" y="799" type="line"/>
			<point x="95" y="753" type="line"/>
			<point x="99" y="753" type="line"/>
			<point x="136" y="800" type="line"/>
			<point x="134" y="801" type="line"/>
			<point x="98" y="755" type="line"/>
			<point x="96" y="755" type="line"/>
			<point x="60" y="801" type="line"/>
		</contour>
	</outline>
</glyph>
<glyph name="currency" format="2">
	<advance width="150"/>
	<unicode hex="00A4"/>
	<outline>
		<contour>
			<point x="44" y="340" type="line"/>
			<point x="102" y="340" type="line"/>
			<point x="102" y="1160" type="line"/>
			<point x="44" y="1160" type="line"/>
		</contour>
		<contour>
			<point x="46" y="342" type="line"/>
			<point x="46" y="1158" type="line"/>
			<point x="100" y="1158" type="line"/>
			<point x="100" y="342" type="line"/>
		</contour>
		<contour>
			<point x="100" y="1160" type="line"/>
			<point x="102" y="1160" type="line"/>
			<point x="126" y="1380" type="line"/>
			<point x="124" y="1380" type="line"/>
		</contour>
		<contour>
			<point x="46" y="1160" type="line"/>
			<point x="22" y="1380" type="line"/>
			<point x="20" y="1380" type="line"/>
			<point x="44" y="1160" type="line"/>
		</contour>
		<contour>
			<point x="100" y="340" type="line"/>
			<point x="124" y="120" type="line"/>
			<point x="126" y="120" type="line"/>
			<point x="102" y="340" type="line"/>
		</contour>
		<contour>
			<point x="46" y="340" type="line"/>
			<point x="44" y="340" type="line"/>
			<point x="20" y="120" type="line"/>
			<point x="22" y="120" type="line"/>
		</contour>
	</outline>
</glyph>
<glyph name="ordfeminine" format="2">
  <advance width="150"/>
  <unicode hex="00AA"/>
  <outline>
    <contour>
      <point x="125" y="1301" type="line" smooth="yes"/>
      <point x="29" y="1301" type="line"/>
      <point x="29" y="1000" type="line" smooth="yes"/>
      <point x="31" y="1000" type="line" smooth="yes"/>
      <point x="31" y="1299" type="line" smooth="yes"/>
      <point x="125" y="1299" type="line" smooth="yes"/>
      <point x="125" y="1000" type="line" smooth="yes"/>
      <point x="127" y="1000" type="line" smooth="yes"/>
      <point x="127" y="1600" type="line" smooth="yes"/>
      <point x="29" y="1600" type="line" smooth="yes"/>
      <point x="29" y="1399" type="line"/>
      <point x="31" y="1399" type="line"/>
      <point x="31" y="1598" type="line" smooth="yes"/>
      <point x="125" y="1598" type="line" smooth="yes"/>
    </contour>
    <contour>
      <point x="29" y="1002" type="line"/>
      <point x="29" y="1000" type="line"/>
      <point x="125" y="1000" type="line"/>
      <point x="125" y="1002" type="line"/>
    </contour>
  </outline>
</glyph>
<glyph name="quoteleft" format="2">
  <advance width="86"/>
  <unicode hex="2018"/>
  <outline>
    <contour>
      <point x="29" y="1438" type="line"/>
      <point x="32" y="1438" type="line"/>
      <point x="66" y="1600" type="line"/>
      <point x="64" y="1600" type="line"/>
    </contour>
  </outline>
</glyph>
<glyph name="infinity" format="2">
	<advance width="150"/>
	<unicode hex="221E"/>
	<outline>
		<contour>
			<point x="37" y="342" type="line"/>
			<point x="39" y="342" type="line"/>
			<point x="39" y="1158" type="line"/>
			<point x="55" y="1158" type="line"/>
			<point x="112" y="342" type="line"/>
			<point x="132" y="342" type="line"/>
			<point x="132" y="1160" type="line"/>
			<point x="130" y="1160" type="line"/>
			<point x="130" y="344" type="line"/>
			<point x="114" y="344" type="line"/>
			<point x="57" y="1160" type="line"/>
			<point x="37" y="1160" type="line"/>
		</contour>
		<contour>
			<point x="132" y="342" type="line"/>
			<point x="132" y="1160" type="line"/>
			<point x="112" y="1160" type="line"/>
			<point x="55" y="344" type="line"/>
			<point x="39" y="344" type="line"/>
			<point x="39" y="1160" type="line"/>
			<point x="37" y="1160" type="line"/>
			<point x="37" y="342" type="line"/>
			<point x="57" y="342" type="line"/>
			<point x="114" y="1158" type="line"/>
			<point x="130" y="1158" type="line"/>
			<point x="130" y="342" type="line"/>
		</contour>
	</outline>
</glyph>
<glyph name="integral" format="2">
	<advance width="200"/>
	<unicode hex="222B"/>
	<outline>
		<contour>
			<point x="137" y="1600" type="line"/>
			<point x="57" y="2" type="line"/>
			<point x="22" y="2" type="line"/>
			<point x="20" y="0" type="line"/>
			<point x="59" y="0" type="line"/>
			<point x="139" y="1598" type="line"/>
			<point x="181" y="1598" type="line"/>
			<point x="183" y="1600" type="line"/>
		</contour>
	</outline>
</glyph>
<glyph name="C.wide" format="2">
	<advance width="148"/>
	<outline>
		<contour>
			<point x="25" y="0" type="line"/>
			<point x="121" y="0" type="line"/>
			<point x="121" y="2" type="line"/>
			<point x="27" y="2" type="line"/>
			<point x="27" y="1296" type="line"/>
			<point x="71" y="1598" type="line"/>
			<point x="120" y="1598" type="line"/>
			<point x="120" y="1600" type="line"/>
			<point x="69" y="1600" type="line"/>
			<point x="25" y="1297" type="line"/>
		</contour>
	</outline>
</glyph>
<glyph name="F.wide" format="2">
	<advance width="132"/>
	<outline>
		<contour>
			<point x="34" y="0" type="line"/>
			<point x="36" y="0" type="line"/>
			<point x="36" y="799" type="line"/>
			<point x="104" y="799" type="line"/>
			<point x="104" y="801" type="line"/>
			<point x="36" y="801" type="line"/>
			<point x="36" y="1598" type="line"/>
			<point x="105" y="1598" type="line"/>
			<point x="105" y="1600" type="line"/>
			<point x="34" y="1600" type="line"/>
		</contour>
	</outline>
</glyph>
<glyph name="P.wide" format="2">
	<advance width="153"/>
	<outline>
		<contour>
			<point x="34" y="0" type="line"/>
			<point x="36" y="0" type="line"/>
			<point x="36" y="751" type="line"/>
			<point x="126" y="751" type="line"/>
			<point x="126" y="1600" type="line"/>
			<point x="34" y="1600" type="line"/>
		</contour>
		<contour>
			<point x="36" y="753" type="line"/>
			<point x="36" y="1598" type="line"/>
			<point x="124" y="1598" type="line"/>
			<point x="124" y="753" type="line"/>
		</contour>
	</outline>
</glyph>
<glyph name="S.wide" format="2">
	<advance width="147"/>
	<outline>
		<contour>
			<point x="29" y="0" type="line"/>
			<point x="80" y="0" type="line"/>
			<point x="113" y="154" type="line"/>
			<point x="113" y="801" type="line"/>
			<point x="29" y="801" type="line"/>
			<point x="29" y="1438" type="line"/>
			<point x="63" y="1598" type="line"/>
			<point x="109" y="1598" type="line"/>
			<point x="109" y="1600" type="line"/>
			<point x="61" y="1600" type="line"/>
			<point x="27" y="1438" type="line"/>
			<point x="27" y="799" type="line"/>
			<point x="111" y="799" type="line"/>
			<point x="111" y="154" type="line"/>
			<point x="78" y="2" type="line"/>
			<point x="29" y="2" type="line"/>
		</contour>
	</outline>
</glyph>
<glyph name="Y.wide" format="2">
	<advance width="160"/>
	<outline>
		<contour>
			<point x="27" y="0" type="line"/>
			<point x="126" y="0" type="line"/>
			<point x="126" y="1600" type="line"/>
			<point x="124" y="1600" type="line"/>
			<point x="124" y="801" type="line"/>
			<point x="33" y="801" type="line"/>
			<point x="33" y="1600" type="line"/>
			<point x="31" y="1600" type="line"/>
			<point x="31" y="799" type="line"/>
			<point x="124" y="799" type="line"/>
			<point x="124" y="2" type="line"/>
			<point x="27" y="2" type="line"/>
		</contour>
	</outline>
</glyph>
<glyph name="/arrowNW" format="2">
	<advance width="150"/>
	<outline>
		<contour>
			<point x="48" y="848" type="line"/>
			<point x="98" y="848" type="line"/>
			<point x="98" y="850" type="line"/>
			<point x="48" y="850" type="line"/>
		</contour>
		<contour>
			<point x="15" y="814" type="line"/>
			<point x="50" y="849" type="line"/>
			<point x="48" y="850" type="line"/>
			<point x="13" y="815" type="line"/>
		</contour>
		<contour>
			<point x="47" y="849" type="line"/>
			<point x="86" y="757" type="line"/>
			<point x="88" y="758" type="line"/>
			<point x="49" y="850" type="line"/>
		</contour>
	</outline>
</glyph>
<glyph name="/arrowSE" format="2">
	<advance width="150"/>
	<outline>
		<contour>
			<point x="59" y="752" type="line"/>
			<point x="9" y="752" type="line"/>
			<point x="9" y="750" type="line"/>
			<point x="59" y="750" type="line"/>
		</contour>
		<contour>
			<point x="92" y="786" type="line"/>
			<point x="57" y="751" type="line"/>
			<point x="59" y="750" type="line"/>
			<point x="94" y="785" type="line"/>
		</contour>
		<contour>
			<point x="60" y="751" type="line"/>
			<point x="21" y="843" type="line"/>
			<point x="19" y="842" type="line"/>
			<point x="58" y="750" type="line"/>
		</contour>
	</outline>
</glyph>
<glyph name="six.wide" format="2">
	<advance width="122"/>
	<outline>
		<contour>
			<point x="13" y="0" type="line"/>
			<point x="108" y="0" type="line"/>
			<point x="108" y="801" type="line"/>
			<point x="15" y="801" type="line"/>
			<point x="15" y="1439" type="line"/>
			<point x="52" y="1598" type="line"/>
			<point x="108" y="1598" type="line"/>
			<point x="108" y="1600" type="line"/>
			<point x="50" y="1600" type="line"/>
			<point x="13" y="1440" type="line"/>
		</contour>
		<contour>
			<point x="106" y="799" type="line"/>
			<point x="106" y="2" type="line"/>
			<point x="15" y="2" type="line"/>
			<point x="15" y="799" type="line"/>
		</contour>
	</outline>
</glyph>
<glyph name="three.wide" format="2">
	<advance width="151"/>
	<outline>
		<contour>
			<point x="27" y="0" type="line"/>
			<point x="122" y="0" type="line"/>
			<point x="122" y="810" type="line"/>
			<point x="106" y="810" type="line"/>
			<point x="106" y="1600" type="line"/>
			<point x="43" y="1600" type="line"/>
			<point x="43" y="1598" type="line"/>
			<point x="104" y="1598" type="line"/>
			<point x="104" y="810" type="line"/>
			<point x="38" y="810" type="line"/>
			<point x="38" y="808" type="line"/>
			<point x="120" y="808" type="line"/>
			<point x="120" y="2" type="line"/>
			<point x="27" y="2" type="line"/>
		</contour>
	</outline>
</glyph>
